<mxfile host="65bd71144e">
    <diagram id="0ABBEtxsre9znGbGL1vc" name="Pagina-1">
        <mxGraphModel dx="830" dy="521" grid="1" gridSize="10" guides="1" tooltips="1" connect="1" arrows="1" fold="1" page="1" pageScale="1" pageWidth="827" pageHeight="1169" math="0" shadow="0">
            <root>
                <mxCell id="0"/>
                <mxCell id="1" parent="0"/>
                <mxCell id="2" value="" style="rounded=1;whiteSpace=wrap;html=1;fontSize=14;container=0;" parent="1" vertex="1">
                    <mxGeometry x="354" y="40" width="120" height="160" as="geometry"/>
                </mxCell>
                <mxCell id="3" value="Processo Main" style="text;html=1;strokeColor=none;fillColor=none;align=center;verticalAlign=middle;whiteSpace=wrap;rounded=0;fontSize=14;container=0;" parent="1" vertex="1">
                    <mxGeometry x="364.5" y="50" width="99" height="16.97" as="geometry"/>
                </mxCell>
                <mxCell id="4" value="Generazione" style="rounded=1;whiteSpace=wrap;html=1;fontSize=14;container=0;" parent="1" vertex="1">
                    <mxGeometry x="364.65" y="80" width="100" height="33.94" as="geometry"/>
                </mxCell>
                <mxCell id="5" value="Selezione" style="rounded=1;whiteSpace=wrap;html=1;fontSize=14;container=0;" parent="1" vertex="1">
                    <mxGeometry x="364.65" y="150" width="100" height="33.94" as="geometry"/>
                </mxCell>
                <mxCell id="26" style="edgeStyle=none;html=1;exitX=0.5;exitY=1;exitDx=0;exitDy=0;fontSize=14;" parent="1" source="4" target="5" edge="1">
                    <mxGeometry relative="1" as="geometry"/>
                </mxCell>
                <mxCell id="6" value="" style="rounded=1;whiteSpace=wrap;html=1;fontSize=14;container=0;" parent="1" vertex="1">
                    <mxGeometry x="100" y="228.5" width="120" height="200" as="geometry"/>
                </mxCell>
                <mxCell id="7" value="Processo 1" style="text;html=1;strokeColor=none;fillColor=none;align=center;verticalAlign=middle;whiteSpace=wrap;rounded=0;fontSize=14;container=0;" parent="1" vertex="1">
                    <mxGeometry x="117.35000000000002" y="408.5" width="85.29" height="16.97" as="geometry"/>
                </mxCell>
                <mxCell id="8" value="Crossover" style="rounded=1;whiteSpace=wrap;html=1;fontSize=14;container=0;" parent="1" vertex="1">
                    <mxGeometry x="110" y="239.08999999999997" width="100" height="33.94" as="geometry"/>
                </mxCell>
                <mxCell id="9" value="Mutazione" style="rounded=1;whiteSpace=wrap;html=1;fontSize=14;container=0;" parent="1" vertex="1">
                    <mxGeometry x="110" y="298.5" width="100" height="38.5" as="geometry"/>
                </mxCell>
                <mxCell id="37" style="edgeStyle=none;html=1;entryX=0.5;entryY=0;entryDx=0;entryDy=0;fontSize=14;" parent="1" source="8" target="9" edge="1">
                    <mxGeometry relative="1" as="geometry"/>
                </mxCell>
                <mxCell id="10" value="Valutazione" style="rounded=1;whiteSpace=wrap;html=1;fontSize=14;container=0;" parent="1" vertex="1">
                    <mxGeometry x="110" y="368.5" width="100" height="33.94" as="geometry"/>
                </mxCell>
                <mxCell id="38" style="edgeStyle=none;html=1;entryX=0.5;entryY=0;entryDx=0;entryDy=0;fontSize=14;" parent="1" source="9" target="10" edge="1">
                    <mxGeometry relative="1" as="geometry"/>
                </mxCell>
                <mxCell id="43" value="" style="rounded=1;whiteSpace=wrap;html=1;fontSize=14;container=0;" vertex="1" parent="1">
                    <mxGeometry x="270" y="228.5" width="120" height="200" as="geometry"/>
                </mxCell>
                <mxCell id="44" value="Processo 2" style="text;html=1;strokeColor=none;fillColor=none;align=center;verticalAlign=middle;whiteSpace=wrap;rounded=0;fontSize=14;container=0;" vertex="1" parent="1">
                    <mxGeometry x="287.35" y="408.5" width="85.29" height="16.97" as="geometry"/>
                </mxCell>
                <mxCell id="45" value="Crossover" style="rounded=1;whiteSpace=wrap;html=1;fontSize=14;container=0;" vertex="1" parent="1">
                    <mxGeometry x="280" y="239.08999999999997" width="100" height="33.94" as="geometry"/>
                </mxCell>
                <mxCell id="46" value="Mutazione" style="rounded=1;whiteSpace=wrap;html=1;fontSize=14;container=0;" vertex="1" parent="1">
                    <mxGeometry x="280" y="298.5" width="100" height="38.5" as="geometry"/>
                </mxCell>
                <mxCell id="47" style="edgeStyle=none;html=1;entryX=0.5;entryY=0;entryDx=0;entryDy=0;fontSize=14;" edge="1" parent="1" source="45" target="46">
                    <mxGeometry relative="1" as="geometry"/>
                </mxCell>
                <mxCell id="48" value="Valutazione" style="rounded=1;whiteSpace=wrap;html=1;fontSize=14;container=0;" vertex="1" parent="1">
                    <mxGeometry x="280" y="368.5" width="100" height="33.94" as="geometry"/>
                </mxCell>
                <mxCell id="49" style="edgeStyle=none;html=1;entryX=0.5;entryY=0;entryDx=0;entryDy=0;fontSize=14;" edge="1" parent="1" source="46" target="48">
                    <mxGeometry relative="1" as="geometry"/>
                </mxCell>
                <mxCell id="50" value="" style="rounded=1;whiteSpace=wrap;html=1;fontSize=14;container=0;" vertex="1" parent="1">
                    <mxGeometry x="440" y="228.5" width="120" height="200" as="geometry"/>
                </mxCell>
                <mxCell id="51" value="Processo 3" style="text;html=1;strokeColor=none;fillColor=none;align=center;verticalAlign=middle;whiteSpace=wrap;rounded=0;fontSize=14;container=0;" vertex="1" parent="1">
                    <mxGeometry x="457.35" y="408.5" width="85.29" height="16.97" as="geometry"/>
                </mxCell>
                <mxCell id="52" value="Crossover" style="rounded=1;whiteSpace=wrap;html=1;fontSize=14;container=0;" vertex="1" parent="1">
                    <mxGeometry x="450" y="239.08999999999997" width="100" height="33.94" as="geometry"/>
                </mxCell>
                <mxCell id="53" value="Mutazione" style="rounded=1;whiteSpace=wrap;html=1;fontSize=14;container=0;" vertex="1" parent="1">
                    <mxGeometry x="450" y="298.5" width="100" height="38.5" as="geometry"/>
                </mxCell>
                <mxCell id="54" style="edgeStyle=none;html=1;entryX=0.5;entryY=0;entryDx=0;entryDy=0;fontSize=14;" edge="1" parent="1" source="52" target="53">
                    <mxGeometry relative="1" as="geometry"/>
                </mxCell>
                <mxCell id="55" value="Valutazione" style="rounded=1;whiteSpace=wrap;html=1;fontSize=14;container=0;" vertex="1" parent="1">
                    <mxGeometry x="450" y="368.5" width="100" height="33.94" as="geometry"/>
                </mxCell>
                <mxCell id="56" style="edgeStyle=none;html=1;entryX=0.5;entryY=0;entryDx=0;entryDy=0;fontSize=14;" edge="1" parent="1" source="53" target="55">
                    <mxGeometry relative="1" as="geometry"/>
                </mxCell>
                <mxCell id="57" value="" style="rounded=1;whiteSpace=wrap;html=1;fontSize=14;container=0;" vertex="1" parent="1">
                    <mxGeometry x="610" y="228.5" width="120" height="200" as="geometry"/>
                </mxCell>
                <mxCell id="58" value="Processo 4" style="text;html=1;strokeColor=none;fillColor=none;align=center;verticalAlign=middle;whiteSpace=wrap;rounded=0;fontSize=14;container=0;" vertex="1" parent="1">
                    <mxGeometry x="627.35" y="408.5" width="85.29" height="16.97" as="geometry"/>
                </mxCell>
                <mxCell id="59" value="Crossover" style="rounded=1;whiteSpace=wrap;html=1;fontSize=14;container=0;" vertex="1" parent="1">
                    <mxGeometry x="620" y="239.08999999999997" width="100" height="33.94" as="geometry"/>
                </mxCell>
                <mxCell id="60" value="Mutazione" style="rounded=1;whiteSpace=wrap;html=1;fontSize=14;container=0;" vertex="1" parent="1">
                    <mxGeometry x="620" y="298.5" width="100" height="38.5" as="geometry"/>
                </mxCell>
                <mxCell id="61" style="edgeStyle=none;html=1;entryX=0.5;entryY=0;entryDx=0;entryDy=0;fontSize=14;" edge="1" parent="1" source="59" target="60">
                    <mxGeometry relative="1" as="geometry"/>
                </mxCell>
                <mxCell id="62" value="Valutazione" style="rounded=1;whiteSpace=wrap;html=1;fontSize=14;container=0;" vertex="1" parent="1">
                    <mxGeometry x="620" y="368.5" width="100" height="33.94" as="geometry"/>
                </mxCell>
                <mxCell id="63" style="edgeStyle=none;html=1;entryX=0.5;entryY=0;entryDx=0;entryDy=0;fontSize=14;" edge="1" parent="1" source="60" target="62">
                    <mxGeometry relative="1" as="geometry"/>
                </mxCell>
                <mxCell id="64" style="edgeStyle=orthogonalEdgeStyle;html=1;entryX=0.5;entryY=0;entryDx=0;entryDy=0;" edge="1" parent="1" source="5" target="8">
                    <mxGeometry relative="1" as="geometry"/>
                </mxCell>
                <mxCell id="65" style="edgeStyle=orthogonalEdgeStyle;html=1;exitX=0.25;exitY=1;exitDx=0;exitDy=0;entryX=0.5;entryY=0;entryDx=0;entryDy=0;" edge="1" parent="1" source="5" target="45">
                    <mxGeometry relative="1" as="geometry"/>
                </mxCell>
                <mxCell id="66" style="edgeStyle=orthogonalEdgeStyle;html=1;exitX=0.75;exitY=1;exitDx=0;exitDy=0;entryX=0.5;entryY=0;entryDx=0;entryDy=0;" edge="1" parent="1" source="5" target="52">
                    <mxGeometry relative="1" as="geometry"/>
                </mxCell>
                <mxCell id="67" style="edgeStyle=orthogonalEdgeStyle;html=1;entryX=0.5;entryY=0;entryDx=0;entryDy=0;" edge="1" parent="1" source="5" target="59">
                    <mxGeometry relative="1" as="geometry"/>
                </mxCell>
            </root>
        </mxGraphModel>
    </diagram>
</mxfile>